<?xml version="1.0" encoding="utf-8"?>
<!-- Generator: Adobe Illustrator 23.0.1, SVG Export Plug-In . SVG Version: 6.00 Build 0)  -->
<svg version="1.1" id="图层_1" xmlns="http://www.w3.org/2000/svg" xmlns:xlink="http://www.w3.org/1999/xlink" x="0px" y="0px"
	 viewBox="0 0 734.3 84.7" style="enable-background:new 0 0 734.3 84.7;" xml:space="preserve">
<style type="text/css">
	.st0{fill:#FFFFFF;}
</style>
<title>igam_logo_w</title>
<g id="レイヤー_1">
	<path class="st0" d="M89.2,34.2V32h6.1c0-0.5,0.1-1.1,0.1-1.8c0-0.7,0.1-1.5,0.2-2.2h2.6c-0.1,0.5-0.2,1.1-0.2,1.6
		c0,0.8-0.1,1.5-0.2,2.3h12.6v2.3H97.7v4.5c0.8-0.2,1.6-0.4,2.4-0.5c0.8-0.1,1.7-0.2,2.5-0.2c1.2,0,2.5,0.1,3.7,0.3
		c1.1,0.2,2.1,0.6,3.1,1c0.9,0.4,1.7,1,2.4,1.6c0.7,0.6,1.3,1.3,1.8,2c0.5,0.7,0.9,1.4,1.1,2.2c0.3,0.7,0.4,1.5,0.4,2.3
		c0,1.4-0.2,2.7-0.8,4c-0.5,1.2-1.3,2.2-2.2,3.1c-1,0.9-2.2,1.6-3.5,2c-1.5,0.5-3.2,0.8-4.8,0.8h-0.2l-0.4-2.3
		c1.5-0.1,3-0.3,4.4-0.8c1.1-0.4,2.1-0.9,2.9-1.7c0.7-0.7,1.2-1.5,1.6-2.4c0.3-0.9,0.5-1.9,0.5-2.9c0-0.8-0.2-1.5-0.6-2.2
		c-0.4-0.7-0.8-1.4-1.4-2c-0.6-0.6-1.3-1.1-2-1.5c-0.7-0.4-1.4-0.7-2.2-0.9c-0.3,0.9-0.6,2-1,3.1c-0.4,1.2-0.9,2.3-1.4,3.4
		c-0.6,1.1-1.2,2.2-1.9,3.3c-0.7,1-1.5,2-2.4,2.8c-0.9,0.8-1.9,1.5-3,2c-1.1,0.5-2.4,0.8-3.6,0.8c-0.8,0-1.6-0.1-2.3-0.5
		c-1.3-0.6-2.2-1.7-2.7-3c-0.2-0.7-0.3-1.4-0.3-2.1c0-1.2,0.2-2.4,0.5-3.5c0.3-1.1,0.8-2.1,1.5-3c0.7-0.9,1.4-1.8,2.3-2.5
		c0.9-0.8,1.9-1.4,3-1.9v-5.6h-5.9L89.2,34.2z M90.3,50.4c0,0.4,0,0.9,0.1,1.3c0.1,0.4,0.2,0.8,0.5,1.1c0.3,0.3,0.6,0.6,0.9,0.8
		c1,0.4,2,0.4,3,0c0.6-0.2,1.1-0.5,1.6-0.8c-0.2-1-0.4-2-0.5-3s-0.2-1.8-0.3-2.7c-0.1-0.8-0.2-1.7-0.2-2.5c0-0.8-0.1-1.6-0.1-2.4
		c-1.5,0.8-2.8,2-3.7,3.5C90.7,47.1,90.3,48.7,90.3,50.4z M102.4,40.2c-0.8,0-1.6,0.1-2.4,0.2c-0.8,0.2-1.6,0.4-2.3,0.6
		c0,1.7,0.1,3.5,0.2,5.2c0.1,1.7,0.3,3.3,0.6,5c0.4-0.4,0.8-0.9,1.2-1.4c0.4-0.6,0.8-1.2,1.1-1.8c0.4-0.6,0.7-1.3,1-2
		c0.3-0.7,0.6-1.3,0.9-2c0.3-0.7,0.5-1.3,0.7-2c0.2-0.6,0.4-1.2,0.5-1.8l-0.4-0.1h-0.3L102.4,40.2L102.4,40.2z"/>
	<path class="st0" d="M132.8,47c-0.5,1.3-1.1,2.6-1.7,3.9c-0.7,1.4-1.5,2.7-2.5,3.8c-0.7,0.9-1.7,1.5-2.8,1.6
		c-0.6,0-1.1-0.1-1.6-0.4c-0.7-0.5-1.3-1-1.8-1.6c-0.8-1-1.5-2.1-2-3.3c-0.6-1.4-1.1-2.9-1.3-4.4c-0.3-1.5-0.4-3-0.4-4.5
		c0-1.3,0.1-3.2,0.3-5.6s0.5-4.4,0.7-5.5h2.8c-0.1,1-0.4,2.9-0.7,5.5c-0.2,2.3-0.4,4.2-0.4,5.5c0,1.8,0.2,3.7,0.6,5.5
		c0.3,1.5,1,2.9,1.9,4.2c0.9,1.2,1.5,1.8,1.9,1.8c0.6,0,1.4-0.8,2.3-2.3c1-1.7,1.8-3.4,2.6-5.2L132.8,47z M144.6,51.8l-2.6,0.1v-0.3
		c-0.1-3.4-0.5-6.8-1.3-10.1c-0.8-3.2-2.1-6.2-4-8.8l2.3-1.4C142.7,36.6,144.6,43.4,144.6,51.8z"/>
	<path class="st0" d="M157.7,27.5c-0.3,1.2-0.6,2.4-1,3.6h12l-0.1,2.4c0,0.7-0.2,1.8-0.4,3.5c-0.2,1.5-0.6,3-1,4.5
		c-0.4,1.4-0.9,2.8-1.5,4.2c-0.6,1.4-1.3,2.7-2.1,4c-0.8,1.2-1.8,2.3-2.8,3.3c-1.1,1.1-2.4,2-3.8,2.8c-1.5,0.8-3.1,1.5-4.7,1.9
		l-1-2.5c4.1-1.1,7.6-3.7,9.9-7.3c2.3-3.6,3.7-8.3,4.2-14.2H156c-0.9,2.2-1.9,4.4-3.2,6.4c-1.1,1.8-2.5,3.5-4.1,5l-2-2
		c2.1-2.2,3.8-4.7,5-7.5c1.3-2.7,2.3-5.6,2.9-8.5L157.7,27.5z M168.2,29.7l-2,0.9c-0.7-1.7-1.6-3.3-2.6-4.9l1.9-0.9
		C166.6,26.3,167.5,28,168.2,29.7z M172.6,29l-2,0.8c-0.7-1.7-1.6-3.3-2.5-4.9L170,24C170.9,25.6,171.8,27.3,172.6,29L172.6,29z"/>
	<path class="st0" d="M196.5,56.3h-20.4V30.7h20.4V56.3z M193.5,53.8V33H179v20.8H193.5z"/>
	<path class="st0" d="M225.8,44.3h-23.5v-2.6h23.5V44.3z"/>
	<path class="st0" d="M240.2,28.7c0.1,5.7-0.8,11.4-2.5,16.8c-1.4,4.1-3.7,7.9-6.7,11.1l-2-1.9c1.1-1.1,2-2.4,2.8-3.7
		c0.9-1.3,1.6-2.7,2.2-4.1c0.6-1.5,1.2-3,1.6-4.5c0.5-1.9,0.9-3.8,1.1-5.8c0.3-2.3,0.4-4.9,0.5-8L240.2,28.7z M256.3,54.3l-2.3,2
		c-1.8-2.3-3.2-4.8-4.2-7.5c-1.3-3.4-2.2-6.9-2.6-10.5c-0.4-3.2-0.7-6.5-0.7-9.8h2.9v0.3c0,4.7,0.5,9.5,1.6,14.1
		C251.8,47.1,253.7,51,256.3,54.3z M254.6,31.3l-2,0.9c-0.7-1.7-1.6-3.3-2.6-4.9l1.9-0.9C253,27.9,253.9,29.6,254.6,31.3L254.6,31.3
		z M259,30.6l-2,0.8c-0.7-1.7-1.6-3.3-2.5-4.9l1.9-0.9C257.3,27.2,258.2,28.9,259,30.6z"/>
	<path class="st0" d="M268.8,37.5c0,2.3-0.1,4.7-0.3,7c-0.2,1.8-0.6,3.6-1.2,5.3c-0.6,1.5-1.4,3-2.5,4.2c-1,1.2-2.1,2.2-3.4,3.1
		l-1.6-2.2c1.2-0.9,2.3-2.1,3.2-3.3c1.1-1.5,1.9-3.3,2.2-5.2c0.5-3.2,0.7-6.4,0.6-9.6v-7.4h3L268.8,37.5z M288.1,43.7
		c-1.4,3.1-3.4,5.9-5.9,8.3c-1.9,2-4.2,3.7-6.7,4.8l-1.5-1.2V28.4h3v24.5c1.6-1,3-2.2,4.1-3.6c1.9-2,3.4-4.2,4.5-6.7L288.1,43.7z"/>
	<path class="st0" d="M294.4,43c0-1.8,1.4-3.2,3.2-3.2c0.9,0,1.7,0.3,2.3,1c0.6,0.6,1,1.4,1,2.3c0,0.9-0.3,1.7-1,2.3
		c-1.2,1.3-3.3,1.3-4.5,0.1c0,0-0.1,0-0.1-0.1l0,0C294.8,44.7,294.4,43.9,294.4,43z"/>
	<path class="st0" d="M333.1,30c-0.4,1.4-0.8,2.8-1.4,4.2c-0.9,2.2-2,4.2-3.4,6.1c-1.1,1.6-2.5,3.1-4,4.4l-1.7-1.9
		c1.7-1.6,3.2-3.4,4.4-5.4c1.1-1.8,2-3.7,2.6-5.7h-21v-2.5h23.7L333.1,30z M321,34.9c0.1,3.3-0.1,6.6-0.5,9.8
		c-0.3,2.2-1.1,4.4-2.2,6.3c-1,1.8-2.4,3.3-4.1,4.5c-1.2,0.9-2.6,1.6-4.1,2.1l-0.8-2.3c2.9-1,5.2-3,6.6-5.7c1.4-3.1,2-6.4,2-9.8V35
		L321,34.9z"/>
	<path class="st0" d="M344,48.9c-0.1,1.3,0.3,2.7,1.2,3.7c0.8,0.8,2.4,1.2,4.7,1.2h10.9v2.6h-11.7c-5.4,0-8.1-2.4-8.1-7.3V38.4
		l-5.8,1l-0.4-2.6l6.3-1.1v-8.2h3v7.7l16-2.8l1.8,1.5c-2.2,4.5-5.2,8.7-8.7,12.3l-1.9-1.8c2.6-2.7,4.8-5.7,6.6-9l-13.8,2.4v11.1H344
		z"/>
	<path class="st0" d="M369.1,45.9l-2.8,0.9c-0.8-3.4-1.8-6.7-3-10l2.5-0.9c0.7,1.8,1.3,3.1,1.6,4S368.2,42.8,369.1,45.9z
		 M382.8,35.3c-0.7,7.3-2.3,12.7-5,16.2c-2.7,3.5-6.6,5.8-11,6.5l-0.6-2.3c4.7-1,8-3.1,10.1-6.6s3.3-8.1,3.6-14L382.8,35.3z
		 M375.6,44.3l-2.7,0.9c-0.7-3.4-1.7-6.8-3-10l2.5-1c0.9,2.5,1.5,4.1,1.8,5S374.9,41.6,375.6,44.3L375.6,44.3z"/>
	<path class="st0" d="M409,45l-1.5,2.4c-2.1-1.7-4.3-3.3-6.7-4.6c-2.3-1.3-4.6-2.5-7.1-3.4v18.3h-3V26.9h3.1v9.7
		C399.2,38.8,404.3,41.6,409,45z"/>
	<path class="st0" d="M415.2,43c0-0.9,0.3-1.7,1-2.3c1.2-1.3,3.3-1.3,4.5-0.1c0,0,0.1,0,0.1,0.1l0,0c0.6,0.6,1,1.4,1,2.3
		c0,1.8-1.4,3.2-3.2,3.2c-0.9,0-1.7-0.4-2.3-1C415.6,44.7,415.2,43.9,415.2,43z"/>
	<path class="st0" d="M447.6,55.9l-2.8,1.6c-3.2-5.8-7.5-10.9-12.5-15.2l2-1.9c2.1,1.6,4,3.4,5.8,5.4c4.1-3.8,7.5-8.2,10-13.2h-21
		v-2.5h23.8l1,1.2c-2.8,6.3-6.9,11.9-12,16.5C443.9,50.5,445.8,53.2,447.6,55.9z"/>
	<path class="st0" d="M470.1,58H467V44.6c-3.6,2.2-7.4,4.1-11.3,5.6l-1-2.4c4.2-1.5,8.1-3.5,11.8-6c3.2-2.1,6-4.8,8.2-7.9h-17.2
		v-2.4h9.5v-4.7h3v4.7h7.8l1.4,1.3c-2.5,3.7-5.5,7-9,9.8L470.1,58z M483.5,48.4l-1.9,2.3c-2.9-2.5-6.1-4.6-9.6-6.3l1.6-2
		C477.2,44,480.5,46,483.5,48.4z"/>
	<path class="st0" d="M498.5,41.5l-1.4,2.5c-3.6-1.8-7.3-3.3-11.1-4.4l1.1-2.3C491,38.3,494.9,39.7,498.5,41.5z M512.4,40
		c-2.1,4.7-5.5,8.7-9.7,11.6c-4.4,3-9.4,4.9-14.7,5.4l-0.7-2.6c3-0.4,5.9-1.2,8.7-2.3c2.3-0.9,4.4-2.2,6.3-3.7
		c1.5-1.2,2.9-2.6,4.2-4.1c1.3-1.7,2.5-3.6,3.4-5.5L512.4,40z M501.5,32.8l-1.5,2.5c-3.5-1.9-7.2-3.5-11-4.7l1.2-2.1
		c1.8,0.5,3.6,1.1,5.3,1.8C497.6,31,499.6,31.8,501.5,32.8L501.5,32.8z M507.6,34.1l-2,0.9c-0.7-1.7-1.6-3.3-2.5-4.9l1.9-0.9
		C505.9,30.7,506.8,32.4,507.6,34.1z M511.9,33.4l-2,0.8c-0.7-1.7-1.6-3.3-2.5-4.9l1.9-0.9C510.3,30,511.2,31.7,511.9,33.4z"/>
	<path class="st0" d="M536.8,28.2c-0.8,5.5-2.6,10.8-5.5,15.6c1.9,1.9,3.7,4,5.4,6.1l-2.3,2.2c-1.5-2-3.1-3.9-4.8-5.7
		c-3.1,4.9-7.7,8.7-13.1,10.8l-1.2-2.4c5.1-2.2,9.3-5.8,12.2-10.5c-2.8-2.8-5.8-5.4-8.9-7.8l1.7-2.1c3.1,2.3,6,4.7,8.8,7.3
		c2.4-4.3,4-8.9,4.6-13.8L536.8,28.2z"/>
	<path class="st0" d="M564.7,40c-1.5,3.3-3.5,6.3-6.1,8.9c-2.2,2.3-4.8,4.2-7.7,5.5c-3,1.3-6.2,2.2-9.4,2.6l-0.6-2.7
		c2.7-0.3,5.4-1,7.9-2.1c2.2-0.9,4.2-2.1,6-3.6c1.5-1.3,2.9-2.7,4.1-4.3c1.3-1.8,2.5-3.8,3.4-5.9L564.7,40z M553.4,35.6l-2,2.3
		c-3.2-2.4-6.7-4.6-10.3-6.5l1.5-2.2C546.5,30.9,550.1,33,553.4,35.6z"/>
	<path class="st0" d="M590.7,45l-1.5,2.4c-2.1-1.7-4.3-3.3-6.7-4.6c-2.3-1.3-4.6-2.5-7.1-3.4v18.3h-3V26.9h3.1v9.7
		C580.9,38.7,586.1,41.6,590.7,45z"/>
	<path class="st0" d="M597.5,42c-1.1,2.9-2.6,5.6-4.5,8l-1.7-1.2c1.4-2,2.6-4.2,3.5-6.5c1.1-2.3,1.9-4.8,2.5-7.3h-4.9v-2.2h5v-6.6
		h2.7v6.6h3.4V35h-3.4v3.3c1.1,1.7,2.5,3.2,4,4.5l-1.5,2c-0.9-0.9-1.8-1.9-2.5-3v16.5h-2.7L597.5,42z M603.4,56l-1.3-1.7
		c2.1-1.5,4-3.3,5.7-5.2c1.8-2,3.4-4.2,4.8-6.6h-8.2v-2.2h8.8v-6h-5.5c-0.6,1.4-1.3,2.7-2.2,3.9l-2-1.1c0.9-1.5,1.7-3.1,2.3-4.8
		c0.7-1.7,1.2-3.4,1.5-5.2l2.7,0.4c-0.4,1.6-0.8,3.1-1.4,4.6h4.7v-5.8h2.8v5.8h8.2v2.2h-8.2v6h9.1v2.2h-8.6c1.5,2.5,3.3,4.8,5.4,6.9
		c1.6,1.6,3.2,3.2,5,4.6l-1.8,2c-3.7-2.8-6.8-6.3-9.2-10.2v12.4h-2.7v-12C610.7,50.1,607.3,53.4,603.4,56L603.4,56z"/>
	<path class="st0" d="M628.4,35v-2.3h18.8v-6.6h2.8v6.6h11.6V35h-11.5c0,3,0.4,6,1,8.9c0.6,2.6,1.6,5.1,3,7.4
		c1.4,2.2,2.5,3.3,3.4,3.3s1.2-0.6,1.3-1.8l0.2-2.2c0.1-0.8,0.1-1.5,0.2-2.2l2.3,0.4c0,2.2-0.1,4.4-0.5,6.5
		c-0.3,1.8-1.2,2.8-2.7,2.8c-0.9,0-1.7-0.2-2.4-0.7c-1-0.8-2-1.7-2.8-2.7c-1.3-1.5-2.3-3.2-3.1-5c-1-2.2-1.6-4.6-2-7
		c-0.5-2.5-0.7-5.1-0.8-7.7H628.4z M629.2,57.1l-0.4-2.4c1.9-0.1,4.6-0.4,8-0.7V42.3H630v-2.2h16v2.2h-6.4v11.4c4-0.5,6.7-0.8,8.1-1
		l0.1,2.3c-1,0.2-3.8,0.6-8.2,1.1S631.7,56.9,629.2,57.1L629.2,57.1z M656.8,32.6c-0.3-0.4-1.8-2-4.4-4.8l2.2-1.4
		c1,1,2.5,2.5,4.4,4.6L656.8,32.6z"/>
	<path class="st0" d="M697.2,40.2c-3-1.3-5.9-3-8.5-5.1c-2.9-2-5.5-4.4-7.7-7.1c-2.1,2.7-4.6,5.1-7.4,7.1c-2.8,2.1-5.7,3.9-8.9,5.4
		l-1.3-1.8c3-1.4,5.9-3.2,8.5-5.2c2.8-1.9,5.2-4.4,7.1-7.2h3.7c2.1,2.6,4.6,4.9,7.4,6.8c2.7,2.1,5.7,3.8,8.9,5.1L697.2,40.2z
		 M666.2,57.9l-0.4-2.4c1.3,0,2.9-0.1,5-0.1c2-2.8,3.7-5.7,5.2-8.7h-10.5v-2.2h31.1v2.2h-17.3c-1.7,2.9-3.5,5.8-5.4,8.6
		c7.3-0.3,12.7-0.7,16.2-1.1c-1.3-1.6-2.6-3.1-4.1-4.5l2.2-1.2c1.4,1.3,2.7,2.7,3.9,4.2c1.6,1.9,2.8,3.4,3.6,4.5l-2.5,1.2
		c-0.4-0.6-0.9-1.3-1.6-2.2c-2.2,0.3-6.2,0.6-12,1S669.4,57.7,666.2,57.9z M671.6,39.1V37h19v2.2L671.6,39.1z"/>
	<path class="st0" d="M706,58.1V43.7c-1.6,1.5-3.3,2.8-5.1,4l-1.2-1.8c2.5-1.7,4.9-3.8,6.9-6.1c1.8-1.9,3.3-4.1,4.3-6.6H701V31h5.2
		v-5h2.6v5h4.6l0.8,1c-1.3,3.2-3.1,6.2-5.5,8.8V41c1.6,1.4,3.4,2.7,5.3,3.8l-1.1,2.4c-1.5-1-2.9-2.2-4.2-3.4v14.3H706z M711.5,57.1
		v-2.2h10.2V38.6h-7.6v-2.2h7.6V26.2h2.8v10.2h8.5v2.2h-8.5v16.3h9.8v2.2L711.5,57.1z"/>
	<path class="st0" d="M157.3,67.7c-0.3,0-0.6-0.1-0.9-0.3c-0.2-0.2-0.4-0.5-0.4-0.8c0-0.3,0.1-0.6,0.4-0.8c0.2-0.2,0.6-0.3,0.9-0.3
		c0.3,0,0.6,0.1,0.9,0.3c0.5,0.4,0.5,1.1,0.1,1.6c0,0,0,0,0,0l-0.1,0.1C158,67.6,157.7,67.7,157.3,67.7z M158.3,78.6h-2v-9h2V78.6z"
		/>
	<path class="st0" d="M188.5,77.7c-1.4,0.7-2.9,1.1-4.4,1.1c-1.7,0.1-3.3-0.5-4.5-1.7c-1.2-1.2-1.8-2.9-1.7-4.6
		c-0.1-1.8,0.6-3.5,1.9-4.8c1.3-1.3,3-1.9,4.8-1.9c1.2,0,2.4,0.2,3.5,0.6v2.2c-1-0.7-2.2-1-3.4-1c-1.2,0-2.4,0.4-3.3,1.3
		c-1.7,1.9-1.7,4.8-0.2,6.8c0.8,0.8,1.9,1.3,3,1.2c0.8,0,1.5-0.2,2.2-0.5v-3h-2.7v-1.7h4.7L188.5,77.7z"/>
	<path class="st0" d="M199.3,78.6h-2.1V65.3h2.1V78.6z"/>
	<path class="st0" d="M212.2,78.8c-1.2,0.1-2.4-0.4-3.3-1.3c-0.9-0.9-1.3-2.1-1.2-3.3c-0.2-2.4,1.6-4.6,4-4.8h0.8
		c1.2-0.1,2.4,0.4,3.3,1.2c0.8,1,1.2,2.2,1.2,3.4c0.1,1.3-0.4,2.5-1.3,3.4C214.8,78.4,213.5,78.9,212.2,78.8z M212.3,71
		c-0.7,0-1.4,0.3-1.9,0.8c-0.5,0.7-0.8,1.5-0.7,2.3c0,0.8,0.2,1.6,0.7,2.2c1,1,2.7,1.1,3.8,0c0,0,0,0,0,0c0.5-0.7,0.7-1.5,0.6-2.3
		c0.1-0.8-0.2-1.6-0.6-2.3C213.7,71.3,213,71,212.3,71L212.3,71z"/>
	<path class="st0" d="M227.3,77.3L227.3,77.3v1.3h-2V65.3h2v5.9l0,0c0.6-1.1,1.8-1.8,3.1-1.8c1,0,2,0.4,2.7,1.2c0.7,0.9,1,2.1,1,3.2
		c0.1,1.3-0.3,2.6-1.1,3.6c-0.7,0.9-1.8,1.4-3,1.4C228.9,78.9,227.9,78.3,227.3,77.3z M227.2,73.7v1.1c0,0.6,0.2,1.2,0.6,1.7
		c0.8,0.9,2.2,0.9,3.1,0.1c0.1-0.1,0.2-0.2,0.2-0.3c0.5-0.7,0.7-1.6,0.6-2.5c0-0.7-0.2-1.5-0.6-2.1c-0.4-0.5-1-0.8-1.6-0.8
		c-0.7,0-1.3,0.3-1.8,0.8C227.4,72.3,227.3,73,227.2,73.7L227.2,73.7z"/>
	<path class="st0" d="M249,78.6h-2v-1.4l0,0c-0.5,1-1.6,1.6-2.7,1.6c-0.8,0-1.5-0.2-2.1-0.7c-0.5-0.5-0.8-1.2-0.8-1.9
		c0-1.7,1-2.7,2.9-3l2.7-0.4c0-1.3-0.6-1.9-1.8-1.9c-1.1,0-2.1,0.4-2.9,1.1v-1.8c1-0.6,2.1-0.9,3.3-0.8c2.3,0,3.4,1.1,3.4,3.3
		L249,78.6z M247,74.2l-1.9,0.3c-0.5,0-0.9,0.2-1.3,0.4c-0.3,0.3-0.5,0.7-0.4,1.1c0,0.3,0.1,0.7,0.4,0.9c0.3,0.3,0.7,0.4,1.1,0.4
		c0.6,0,1.1-0.2,1.5-0.7c0.4-0.5,0.6-1.1,0.6-1.7L247,74.2z"/>
	<path class="st0" d="M259.8,78.6h-2V65.3h2V78.6z"/>
	<path class="st0" d="M290.4,78.6h-2.3l-1.1-3.2h-4.9l-1.1,3.2h-2.3l4.7-12.6h2.4L290.4,78.6z M286.4,73.7l-1.8-5
		c-0.1-0.3-0.1-0.5-0.2-0.8l0,0c0,0.3-0.1,0.5-0.2,0.8l-1.7,5H286.4z"/>
	<path class="st0" d="M297.6,78.3v-1.9c0.7,0.6,1.6,0.9,2.5,0.9c1.2,0,1.9-0.4,1.9-1.1c0-0.2-0.1-0.4-0.2-0.5
		c-0.1-0.2-0.3-0.3-0.4-0.4l-0.6-0.3l-0.8-0.3c-0.4-0.1-0.7-0.3-1-0.5c-0.3-0.1-0.5-0.3-0.7-0.6c-0.2-0.2-0.3-0.4-0.4-0.7
		c-0.1-0.3-0.2-0.6-0.1-0.9c0-0.4,0.1-0.8,0.3-1.2c0.2-0.3,0.5-0.6,0.8-0.8c0.4-0.2,0.8-0.4,1.2-0.5c0.5-0.1,0.9-0.2,1.4-0.2
		c0.8,0,1.5,0.1,2.2,0.4v1.8c-0.7-0.4-1.4-0.7-2.2-0.7c-0.2,0-0.5,0-0.7,0.1c-0.2,0-0.4,0.1-0.5,0.2c-0.1,0.1-0.3,0.2-0.3,0.3
		c-0.1,0.1-0.1,0.3-0.1,0.4c0,0.2,0,0.3,0.1,0.5c0.1,0.1,0.2,0.3,0.4,0.4L301,73l0.8,0.3c0.4,0.1,0.7,0.3,1,0.5
		c0.3,0.1,0.6,0.3,0.8,0.6c0.2,0.2,0.4,0.4,0.5,0.7c0.1,0.3,0.2,0.7,0.2,1c0,0.4-0.1,0.8-0.3,1.2c-0.2,0.3-0.5,0.6-0.8,0.8
		c-0.4,0.2-0.8,0.4-1.2,0.5c-0.5,0.1-1,0.2-1.5,0.2C299.5,78.9,298.6,78.7,297.6,78.3z"/>
	<path class="st0" d="M311.6,78.3v-1.9c0.7,0.6,1.6,0.9,2.5,0.9c1.2,0,1.8-0.4,1.8-1.1c0-0.2,0-0.4-0.2-0.5s-0.3-0.3-0.4-0.4
		l-0.6-0.3l-0.8-0.3c-0.4-0.1-0.7-0.3-1-0.5c-0.3-0.1-0.5-0.3-0.7-0.6c-0.2-0.2-0.4-0.4-0.5-0.7c-0.1-0.3-0.2-0.6-0.1-0.9
		c0-0.4,0.1-0.8,0.3-1.2c0.2-0.3,0.5-0.6,0.8-0.8c0.4-0.2,0.8-0.4,1.2-0.5c0.5-0.1,0.9-0.2,1.4-0.2c0.8,0,1.5,0.1,2.2,0.4v1.8
		c-0.7-0.4-1.4-0.7-2.2-0.7c-0.2,0-0.5,0-0.7,0.1c-0.2,0-0.4,0.1-0.5,0.2c-0.1,0.1-0.3,0.2-0.3,0.3c-0.1,0.1-0.1,0.3-0.1,0.4
		c0,0.2,0,0.3,0.1,0.5c0.1,0.1,0.2,0.3,0.4,0.4l0.6,0.3l0.8,0.3c0.4,0.1,0.7,0.3,1,0.5c0.3,0.1,0.6,0.3,0.8,0.6
		c0.5,0.4,0.7,1.1,0.7,1.7c0,0.4-0.1,0.8-0.3,1.2c-0.2,0.3-0.5,0.6-0.9,0.8c-0.4,0.2-0.8,0.4-1.2,0.5c-0.5,0.1-1,0.2-1.5,0.2
		C313.4,78.8,312.5,78.6,311.6,78.3z"/>
	<path class="st0" d="M333.8,74.6h-6.1c0,0.7,0.3,1.4,0.8,1.9c0.6,0.5,1.3,0.7,2,0.7c0.9,0,1.9-0.3,2.6-0.9V78
		c-1,0.6-2.1,0.8-3.2,0.8c-1.2,0.1-2.3-0.4-3.1-1.2c-0.8-1-1.2-2.2-1.1-3.4c0-1.2,0.4-2.5,1.2-3.4c0.8-0.9,1.9-1.3,3.1-1.3
		c1.1-0.1,2.2,0.4,2.9,1.2c0.7,0.9,1.1,2.1,1,3.3L333.8,74.6z M331.8,73.2c0-0.6-0.2-1.2-0.5-1.7c-0.4-0.4-0.9-0.6-1.4-0.6
		c-0.6,0-1.1,0.2-1.5,0.6c-0.4,0.5-0.7,1.1-0.8,1.7H331.8z"/>
	<path class="st0" d="M346.8,78.5c-0.5,0.2-1.1,0.3-1.6,0.3c-1.8,0-2.6-0.8-2.6-2.5v-5.1h-1.5v-1.6h1.5v-2.1l2-0.6v2.7h2.1v1.6h-2.1
		v4.5c0,0.4,0.1,0.8,0.3,1.1c0.3,0.3,0.6,0.4,1,0.3c0.3,0,0.6-0.1,0.9-0.3L346.8,78.5z"/>
	<path class="st0" d="M379.7,78.6h-2.1v-8.2c0-0.8,0-1.6,0.1-2.4l0,0l-0.3,1.2l-3.8,9.4h-1.4l-3.8-9.3c-0.2-0.4-0.3-0.9-0.3-1.3l0,0
		c0,0.5,0.1,1.3,0.1,2.5v8.1h-1.9V66h2.9l3.3,8.4c0.2,0.4,0.4,0.9,0.5,1.4l0,0c0.2-0.7,0.4-1.2,0.5-1.5l3.4-8.3h2.8L379.7,78.6
		L379.7,78.6z"/>
	<path class="st0" d="M395.7,78.6h-2v-1.4l0,0c-0.5,1-1.6,1.7-2.8,1.6c-0.8,0-1.5-0.2-2.1-0.7c-0.5-0.5-0.8-1.2-0.8-1.9
		c0-1.7,1-2.7,2.9-3l2.7-0.4c0-1.3-0.6-1.9-1.8-1.9c-1.1,0-2.1,0.4-2.9,1.1v-1.8c1-0.6,2.1-0.9,3.3-0.8c2.3,0,3.4,1.1,3.4,3.3
		L395.7,78.6z M393.7,74.2l-1.9,0.3c-0.5,0-0.9,0.2-1.3,0.4c-0.6,0.5-0.6,1.3-0.1,1.9c0,0,0.1,0.1,0.1,0.1l0,0
		c0.3,0.3,0.7,0.4,1.1,0.4c0.6,0,1.1-0.2,1.5-0.7c0.4-0.5,0.6-1.1,0.6-1.7L393.7,74.2z"/>
	<path class="st0" d="M412.5,78.6h-2v-5.1c0-1.7-0.6-2.5-1.8-2.5c-0.6,0-1.1,0.3-1.5,0.7c-0.4,0.5-0.6,1.1-0.6,1.8v5.1h-2v-9h2v1.5
		l0,0c0.6-1.1,1.7-1.7,2.9-1.7c0.8-0.1,1.7,0.2,2.2,0.9c0.6,0.8,0.8,1.8,0.8,2.8V78.6z"/>
	<path class="st0" d="M428.1,78.6h-2v-1.4l0,0c-0.5,1-1.6,1.6-2.7,1.6c-0.8,0-1.5-0.2-2.1-0.7c-0.5-0.5-0.8-1.2-0.8-1.9
		c0-1.7,1-2.7,2.9-3l2.7-0.4c0-1.3-0.6-1.9-1.8-1.9c-1.1,0-2.1,0.4-2.9,1.1v-1.8c1-0.6,2.1-0.9,3.3-0.8c2.3,0,3.4,1.1,3.4,3.3V78.6z
		 M426.1,74.2l-1.9,0.3c-0.5,0-0.9,0.2-1.3,0.4c-0.6,0.5-0.6,1.3-0.1,1.9c0,0,0.1,0.1,0.1,0.1l0,0c0.3,0.3,0.7,0.4,1.1,0.4
		c0.6,0,1.1-0.2,1.5-0.7c0.4-0.5,0.6-1.1,0.6-1.7L426.1,74.2z"/>
	<path class="st0" d="M445.1,77.9c0,3.3-1.7,5-5,5c-1.1,0-2.1-0.2-3.1-0.6v-1.9c0.8,0.5,1.8,0.8,2.8,0.8c1.6,0.2,3-0.9,3.2-2.5
		c0-0.2,0-0.5,0-0.7v-1l0,0c-1,1.7-3.1,2.2-4.8,1.2c0,0,0,0,0,0c-0.3-0.2-0.6-0.4-0.9-0.7c-0.7-0.9-1.1-2-1-3.2
		c-0.1-1.3,0.3-2.6,1.1-3.7c0.7-0.9,1.8-1.4,3-1.3c1.1,0,2.1,0.6,2.6,1.5l0,0v-1.2h2L445.1,77.9z M443.1,74.5v-1.2
		c0-0.6-0.2-1.2-0.6-1.6c-0.4-0.4-1-0.7-1.6-0.7c-0.7,0-1.4,0.3-1.8,0.9c-0.5,0.7-0.7,1.5-0.7,2.4c0,0.7,0.2,1.5,0.6,2.1
		c0.8,0.9,2.2,1.1,3.1,0.3c0.1-0.1,0.2-0.2,0.3-0.3C442.9,75.9,443.1,75.2,443.1,74.5z"/>
	<path class="st0" d="M461.6,74.6h-6.1c0,0.7,0.3,1.4,0.8,1.9c0.6,0.5,1.3,0.7,2,0.7c0.9,0,1.9-0.3,2.6-0.9V78
		c-1,0.6-2.1,0.8-3.2,0.8c-1.2,0.1-2.3-0.4-3.1-1.2c-0.8-1-1.2-2.2-1.1-3.4c0-1.2,0.4-2.5,1.2-3.4c0.8-0.9,1.9-1.3,3.1-1.3
		c1.1-0.1,2.2,0.4,2.9,1.2c0.7,0.9,1.1,2.1,1,3.3L461.6,74.6z M459.6,73.2c0-0.6-0.2-1.2-0.5-1.7c-0.4-0.4-0.9-0.6-1.4-0.6
		c-0.6,0-1.1,0.2-1.5,0.6c-0.4,0.5-0.7,1.1-0.8,1.7H459.6z"/>
	<path class="st0" d="M483.2,78.6h-2v-4.9c0-0.7-0.1-1.4-0.4-2c-0.3-0.4-0.9-0.7-1.4-0.6c-0.6,0-1.1,0.3-1.4,0.8
		c-0.4,0.6-0.6,1.2-0.6,1.9v4.9h-2v-5.1c0-1.7-0.6-2.5-1.8-2.5c-0.6,0-1.1,0.3-1.4,0.8c-0.4,0.6-0.6,1.3-0.5,2v4.9h-2v-9h2V71l0,0
		c0.6-1,1.6-1.6,2.8-1.6c0.6,0,1.1,0.2,1.6,0.5c0.5,0.3,0.8,0.8,1,1.3c0.5-1.2,1.7-1.9,3-1.9c2,0,3,1.2,3,3.7L483.2,78.6z"/>
	<path class="st0" d="M499.6,74.6h-6.1c0,0.7,0.3,1.4,0.8,1.9c0.6,0.5,1.3,0.7,2,0.7c0.9,0,1.9-0.3,2.6-0.9V78
		c-1,0.6-2.1,0.8-3.2,0.8c-1.2,0.1-2.3-0.4-3.1-1.2c-0.8-1-1.2-2.2-1.1-3.4c0-1.2,0.4-2.5,1.2-3.4c0.8-0.9,1.9-1.3,3.1-1.3
		c1.1-0.1,2.2,0.4,2.9,1.2c0.7,0.9,1.1,2.1,1,3.3L499.6,74.6z M497.6,73.2c0-0.6-0.2-1.2-0.5-1.7c-0.4-0.4-0.9-0.6-1.4-0.6
		c-0.6,0-1.1,0.2-1.5,0.6c-0.4,0.5-0.7,1.1-0.8,1.7H497.6z"/>
	<path class="st0" d="M515.8,78.6h-2v-5.1c0-1.7-0.6-2.5-1.8-2.5c-0.6,0-1.1,0.3-1.5,0.7c-0.4,0.5-0.6,1.1-0.6,1.8v5.1h-2v-9h2v1.5
		l0,0c0.6-1.1,1.7-1.7,2.9-1.7c0.8-0.1,1.7,0.2,2.2,0.9c0.6,0.8,0.8,1.8,0.8,2.8V78.6z"/>
	<path class="st0" d="M529.3,78.5c-0.5,0.2-1.1,0.3-1.6,0.3c-1.7,0-2.6-0.8-2.6-2.5v-5.1h-1.5v-1.6h1.5v-2.1l2-0.6v2.7h2.2v1.6h-2.2
		v4.5c0,0.4,0.1,0.8,0.3,1.1c0.3,0.3,0.6,0.4,1,0.3c0.3,0,0.6-0.1,0.9-0.3L529.3,78.5z"/>
	<path class="st0" d="M557.5,78.1c-1.1,0.5-2.3,0.8-3.5,0.7c-1.6,0-3.2-0.6-4.4-1.7c-1.1-1.3-1.7-2.9-1.7-4.6
		c-0.1-1.8,0.6-3.6,1.9-4.9c1.3-1.2,2.9-1.9,4.7-1.9c1,0,2,0.2,3,0.5v2.1c-0.8-0.5-1.8-0.8-2.8-0.8c-1.2,0-2.4,0.4-3.3,1.3
		c-0.9,0.9-1.3,2.2-1.3,3.5c-0.1,1.2,0.4,2.4,1.2,3.3c0.8,0.9,2,1.3,3.2,1.3c1.1,0,2.1-0.3,3.1-0.8v2H557.5z"/>
	<path class="st0" d="M569.9,78.8c-1.2,0.1-2.4-0.4-3.3-1.3c-0.9-0.9-1.3-2.1-1.2-3.3c-0.2-2.4,1.6-4.6,4-4.8h0.8
		c1.2-0.1,2.4,0.4,3.3,1.2c0.8,1,1.2,2.2,1.2,3.4c0.1,1.3-0.4,2.5-1.3,3.4C572.5,78.4,571.3,78.9,569.9,78.8z M570,71
		c-0.7,0-1.4,0.3-1.9,0.8c-0.5,0.7-0.8,1.5-0.7,2.3c0,0.8,0.2,1.6,0.7,2.2c0.5,0.5,1.2,0.8,1.9,0.8c0.7,0,1.3-0.3,1.8-0.8
		c0.5-0.7,0.7-1.5,0.6-2.3c0.1-0.8-0.2-1.6-0.6-2.3C571.3,71.3,570.7,71,570,71z"/>
	<path class="st0" d="M583.7,78.8c-0.3,0-0.6-0.1-0.9-0.3c-0.5-0.4-0.5-1.1-0.1-1.6c0,0,0,0,0,0c0-0.1,0-0.1,0.1-0.1
		c0.2-0.2,0.6-0.4,0.9-0.3c0.3,0,0.6,0.1,0.9,0.3c0.5,0.4,0.5,1.1,0.1,1.6c0,0,0,0,0,0c0,0.1,0,0.1-0.1,0.1
		C584.4,78.7,584.1,78.8,583.7,78.8z"/>
	<path class="st0" d="M595.4,76.5l-1.4,4.4h-1.5l1-4.4H595.4z"/>
	<path class="st0" d="M622.5,78.6h-7V66h2.1v10.8h4.9V78.6z"/>
	<path class="st0" d="M634.8,78.5c-0.5,0.2-1.1,0.3-1.6,0.3c-1.8,0-2.6-0.8-2.6-2.5v-5.1h-1.5v-1.6h1.5v-2.1l2-0.6v2.7h2.2v1.6h-2.2
		v4.5c0,0.4,0.1,0.8,0.3,1.1c0.3,0.3,0.6,0.4,1,0.3c0.3,0,0.6-0.1,0.9-0.3L634.8,78.5z"/>
	<path class="st0" d="M650.9,78.6h-2v-1.5l0,0c-1,1.7-3.1,2.2-4.8,1.3c-0.3-0.2-0.6-0.4-0.9-0.7c-0.7-0.9-1.1-2.1-1-3.3
		c-0.1-1.3,0.3-2.6,1.1-3.6c0.7-0.9,1.8-1.4,2.9-1.3c1.1-0.1,2.1,0.5,2.7,1.4l0,0v-5.6h2V78.6z M648.9,74.5v-1.2
		c0-0.6-0.2-1.2-0.6-1.6c-0.4-0.5-1-0.7-1.6-0.7c-0.7,0-1.3,0.3-1.8,0.8c-0.5,0.7-0.7,1.5-0.7,2.4c0,0.8,0.2,1.5,0.6,2.2
		c0.8,0.9,2.2,1.1,3.1,0.3c0.1-0.1,0.2-0.2,0.3-0.3C648.7,75.9,648.9,75.2,648.9,74.5L648.9,74.5z"/>
	<path class="st0" d="M660.6,78.8c-0.3,0-0.6-0.1-0.9-0.3c-0.5-0.4-0.5-1.1-0.1-1.6c0,0,0,0,0,0c0-0.1,0-0.1,0.1-0.1
		c0.2-0.2,0.6-0.4,0.9-0.3c0.3,0,0.6,0.1,0.9,0.3c0.5,0.4,0.5,1.1,0.1,1.6c0,0,0,0,0,0l-0.1,0.1C661.3,78.7,661,78.8,660.6,78.8z"/>
	<path class="st0" d="M49,4.4c-1.3-3.9-7.3-5.5-13.4-3.6s-10,6.8-8.7,10.7s7.3,5.5,13.4,3.6S50.3,8.4,49,4.4z"/>
	<path class="st0" d="M21.6,77.8l2.6-6.4l19.7-49.8H21.6L0.8,74.1l0,0l-0.6,1.6C0,76.4-0.1,77.1,0,77.8l0,0c0,0.5,0.1,0.9,0.3,1.3
		c0.9,2.7,3.5,4.6,6.8,5.1l0.5,0.1l0.5,0.1c2.4,0.6,6.1,0.3,10.2-0.9c3.2-0.9,6.2-2.5,8.8-4.7h-5.3C21.4,78.9,21.3,78.4,21.6,77.8z"
		/>
</g>
</svg>
