<?xml version="1.0" encoding="UTF-8"?>
<svg width="18px" height="18px" viewBox="0 0 18 18" version="1.1" xmlns="http://www.w3.org/2000/svg" xmlns:xlink="http://www.w3.org/1999/xlink">
    <!-- Generator: Sketch 55.2 (78181) - https://sketchapp.com -->
    <title>PDF_</title>
    <desc>Created with Sketch.</desc>
    <g id="切图" stroke="none" stroke-width="1" fill="none" fill-rule="evenodd">
        <g id="PDF_" fill="#33479C" fill-rule="nonzero">
            <path d="M15.9058234,3.14425244 C15.7886036,3.02704733 15.6601127,2.90308039 15.5180964,2.77460556 C15.096556,2.38692712 14.7043206,2.02404207 14.3413901,1.68595041 C14.3053225,1.66341097 14.2760175,1.63861758 14.2534753,1.61607814 C13.7259862,1.13598798 13.3089543,0.766341097 13.0046337,0.509391435 C12.8175329,0.356123216 12.6710081,0.24567994 12.5650595,0.175807663 C12.4951785,0.117205109 12.4298059,0.0766341097 12.371196,0.0518407213 C12.301315,0.0157776108 12.2246713,0 12.1435191,0 C12.0262993,0 11.9248591,0.0428249437 11.8369443,0.130728775 C11.7490294,0.218632607 11.7061991,0.326821938 11.7061991,0.455296769 L11.7061991,4.49887303 L15.7480276,4.49887303 L15.2904195,4.05935387 L15.2904195,17.5401953 L15.7480276,17.1006762 L4.04182843,17.1006762 C3.67889793,17.1006762 3.36556043,16.9699474 3.1018159,16.7062359 C2.83807138,16.4425244 2.70732624,16.1224643 2.70732624,15.7483095 L2.70732624,0.455296769 L2.24971822,0.912847483 L10.3536631,0.912847483 C10.4708829,0.912847483 10.5723231,0.870022539 10.6602379,0.782118708 C10.7481528,0.694214876 10.7909831,0.588279489 10.7909831,0.466566491 C10.7909831,0.342599549 10.7481528,0.238918107 10.6602379,0.151014275 C10.5723231,0.0631104433 10.4708829,0.0202854996 10.3536631,0.0202854996 L1.79211021,0.0202854996 L1.79211021,15.7505635 C1.79211021,16.3726521 2.01077019,16.9023291 2.4503444,17.3418482 C2.8899186,17.7813674 3.41966187,18 4.04182843,18 L16.2056356,18 L16.2056356,3.60180316 L12.1457733,3.60180316 L12.6033813,4.05935387 L12.6033813,0.455296769 C12.6033813,0.572501878 12.560551,0.673929376 12.4726362,0.761833208 C12.3847214,0.84973704 12.2832812,0.892561983 12.1660614,0.892561983 C12.1074515,0.892561983 12.0556043,0.881292261 12.0082655,0.856498873 L12.0443331,0.892561983 C12.1254853,0.951164538 12.2562304,1.05033809 12.4320601,1.19233659 C12.7251096,1.44928625 13.1286162,1.81442524 13.6448341,2.28099174 C13.6809017,2.30353118 13.7102066,2.32832457 13.7327489,2.35086401 C14.0956794,2.67993989 14.4879148,3.04282494 14.9094552,3.43951916 C15.0492173,3.55672427 15.1799624,3.67392938 15.2971822,3.79113449 C15.3670632,3.84973704 15.414402,3.89706987 15.4369443,3.93087904 C15.5316218,4.01202104 15.6398247,4.05484598 15.7615529,4.05484598 C15.8855354,4.05484598 15.9892298,4.00751315 16.0771446,3.91510143 C16.1650595,3.82043576 16.2056356,3.71224643 16.2011271,3.59053343 C16.1943644,3.46656649 16.1515341,3.36513899 16.070382,3.28399699 C16.0185348,3.25018783 15.9644333,3.202855 15.9058234,3.14425244 L15.9058234,3.14425244 Z M1.79211021,8.10067618 L0,8.10067618 L0,15.7460556 L18,15.7460556 L18,8.10067618 L1.79211021,8.10067618 Z M3.65410144,12.4936138 L3.65410144,14.391435 L2.77495304,14.391435 L2.77495304,9.27723516 L4.72711334,9.27723516 C5.30194114,9.27723516 5.7550407,9.42599549 6.08866625,9.7257701 C6.4222918,10.0255447 6.58910457,10.419985 6.58910457,10.9113449 C6.58910457,11.4027047 6.42454602,11.7903832 6.09768316,12.0721262 C5.76856606,12.3538693 5.30644959,12.4936138 4.70907952,12.4936138 L3.65410144,12.4936138 L3.65410144,12.4936138 Z M3.65410144,11.7746056 L4.72711334,11.7746056 C5.04270507,11.7746056 5.28390733,11.7024793 5.44846587,11.555973 C5.61302442,11.4094666 5.69417658,11.1953418 5.69417658,10.9135988 C5.69417658,10.6318557 5.61302442,10.4087153 5.44846587,10.2464313 C5.28390733,10.0818933 5.04946775,10.0007513 4.74514715,10.0007513 L3.65635567,10.0007513 L3.65635567,11.7746056 L3.65410144,11.7746056 Z M7.36230432,14.393689 L7.36230432,9.27723516 L8.87489042,9.27723516 C9.33249843,9.27723516 9.73600501,9.37640872 10.0876644,9.57700977 C10.4393237,9.77761082 10.7120852,10.0638618 10.9059487,10.4380165 C11.0998121,10.8121713 11.1967439,11.2359128 11.1967439,11.7024793 L11.1967439,11.9661908 C11.1967439,12.446281 11.0998121,12.8722765 10.9059487,13.2396694 C10.7120852,13.6093163 10.4370695,13.8933133 10.0809017,14.0916604 C9.72247965,14.2900075 9.30995617,14.391435 8.84107702,14.391435 L7.36230432,14.391435 L7.36230432,14.393689 Z M8.25948654,9.99849737 L8.25948654,13.6904583 L8.83882279,13.6904583 C9.30770194,13.6904583 9.66612398,13.5439519 9.91183469,13.2509391 C10.1575454,12.9579264 10.2860363,12.5364388 10.2995617,11.9864763 L10.2995617,11.7047333 C10.2995617,11.1547708 10.1800877,10.7332832 9.93888541,10.4402705 C9.69768316,10.1472577 9.34376957,10.0007513 8.87489042,10.0007513 L8.25948654,10.0007513 L8.25948654,9.99849737 Z M15.026675,12.2321563 L12.9708203,12.2321563 L12.9708203,14.393689 L12.0736381,14.393689 L12.0736381,9.27723516 L15.3264872,9.27723516 L15.3264872,9.99849737 L12.9708203,9.99849737 L12.9708203,11.5108941 L15.026675,11.5108941 L15.026675,12.2321563 Z" id="形状"></path>
        </g>
    </g>
</svg>